<?xml version="1.0" standalone="no"?>
<!DOCTYPE svg PUBLIC "-//W3C//DTD SVG 20010904//EN"
 "http://www.w3.org/TR/2001/REC-SVG-20010904/DTD/svg10.dtd">
<svg version="1.0" xmlns="http://www.w3.org/2000/svg"
 width="464.000000pt" height="147.000000pt" viewBox="0 0 464.000000 147.000000"
 preserveAspectRatio="xMidYMid meet">

<g transform="translate(0.000000,147.000000) scale(0.100000,-0.100000)"
fill="#000000" stroke="none">
<path d="M4272 1383 c-6 -10 -60 -143 -121 -296 -61 -153 -117 -286 -123 -297
-7 -11 -30 -26 -50 -35 -65 -26 -45 -35 72 -35 91 0 110 3 110 15 0 8 -8 15
-18 15 -10 0 -27 6 -38 14 -19 14 -18 16 10 98 16 46 33 89 39 96 6 8 44 12
121 12 l112 0 32 -97 c30 -91 31 -99 15 -110 -9 -7 -27 -13 -40 -13 -14 0 -23
-6 -23 -15 0 -13 18 -15 123 -13 120 3 152 14 87 31 -17 4 -36 16 -42 27 -7
10 -60 153 -118 317 -106 301 -123 333 -148 286z m88 -360 c0 -10 -23 -13 -88
-13 -49 0 -91 3 -95 6 -5 6 8 45 74 219 l22 60 44 -130 c23 -71 43 -135 43
-142z"/>
<path d="M20 1376 c0 -8 11 -17 25 -20 13 -3 30 -16 37 -29 6 -12 65 -155 129
-317 90 -227 121 -295 134 -295 12 0 39 45 94 158 l76 159 69 -162 c52 -119
73 -160 85 -158 10 2 64 115 151 312 124 285 138 310 168 324 60 29 41 42 -63
42 -71 0 -95 -3 -95 -13 0 -7 14 -18 30 -24 21 -8 30 -18 30 -33 0 -25 -189
-470 -200 -470 -4 0 -34 60 -67 133 l-61 132 57 110 c41 80 63 114 84 123 15
7 27 20 27 28 0 11 -16 14 -75 14 -57 0 -75 -3 -75 -14 0 -8 7 -16 15 -20 24
-9 18 -41 -21 -118 l-36 -72 -25 48 c-14 27 -31 67 -39 88 -12 35 -12 39 6 51
43 26 23 37 -70 37 -69 0 -90 -3 -90 -13 0 -8 11 -19 23 -24 17 -8 40 -47 80
-137 32 -69 57 -131 57 -137 0 -6 -23 -63 -52 -126 -38 -84 -54 -110 -60 -99
-22 39 -188 452 -188 468 0 10 14 25 30 33 17 9 28 20 25 25 -4 6 -53 10 -111
10 -82 0 -104 -3 -104 -14z"/>
<path d="M1002 1183 c2 -10 12 -19 23 -21 41 -7 45 -28 45 -208 0 -184 -5
-204 -51 -204 -10 0 -19 -7 -19 -15 0 -12 19 -15 110 -15 91 0 110 3 110 15 0
8 -9 15 -19 15 -46 0 -51 20 -51 209 0 186 2 195 45 203 11 2 21 11 23 21 3
15 -8 17 -108 17 -100 0 -111 -2 -108 -17z"/>
<path d="M1312 1183 c2 -10 12 -19 23 -21 43 -8 45 -17 45 -203 0 -189 -5
-209 -51 -209 -10 0 -19 -7 -19 -15 0 -12 18 -15 105 -15 87 0 105 3 105 15 0
8 -6 15 -14 15 -34 0 -46 30 -46 111 0 77 1 80 22 77 27 -4 158 -170 158 -199
0 -17 8 -19 70 -19 55 0 70 3 70 15 0 8 -11 17 -25 21 -16 4 -56 45 -110 113
-47 58 -85 108 -85 111 0 11 118 153 136 163 10 6 32 13 49 17 17 3 31 13 33
23 3 16 -5 17 -89 15 -65 -2 -94 -7 -97 -16 -2 -7 5 -16 17 -19 12 -3 21 -10
21 -15 0 -17 -58 -94 -99 -131 -64 -58 -72 -52 -69 45 3 79 4 83 31 96 15 7
27 20 27 28 0 11 -20 14 -106 14 -95 0 -105 -2 -102 -17z"/>
<path d="M1852 1183 c2 -10 13 -19 25 -21 41 -6 44 -21 41 -213 l-3 -184 -32
-10 c-18 -5 -33 -15 -33 -22 0 -10 28 -13 116 -13 88 0 115 3 112 13 -3 6 -14
13 -26 15 -45 7 -52 35 -52 204 0 178 6 205 47 210 17 2 28 9 28 18 0 12 -21
16 -113 18 -104 2 -113 1 -110 -15z"/>
<path d="M2165 1190 c-10 -16 4 -30 31 -30 37 0 44 -33 44 -208 0 -169 -7
-197 -52 -204 -12 -2 -23 -9 -26 -15 -3 -10 24 -13 112 -13 88 0 116 3 116 13
0 7 -15 17 -32 22 l-33 10 -3 75 -3 75 63 0 c76 0 121 26 149 89 23 50 24 76
4 122 -24 58 -74 74 -232 74 -77 0 -134 -4 -138 -10z m251 -34 c12 -4 26 -18
32 -32 15 -32 15 -106 1 -138 -14 -30 -59 -48 -99 -39 l-30 6 0 99 c0 93 1 99
23 108 21 8 30 8 73 -4z"/>
<path d="M2622 1183 c2 -10 13 -19 25 -21 41 -6 44 -21 41 -213 l-3 -184 -32
-10 c-18 -5 -33 -15 -33 -22 0 -10 40 -13 184 -13 l184 0 12 53 c6 28 13 60
15 70 7 34 -24 16 -44 -26 -25 -52 -53 -67 -126 -67 -68 0 -75 11 -75 120 l0
81 57 -3 c51 -3 58 -6 63 -27 3 -14 11 -26 18 -29 9 -3 12 18 12 78 0 60 -3
81 -12 78 -7 -3 -15 -15 -18 -29 -5 -21 -12 -24 -63 -27 l-58 -3 3 83 3 83 68
3 c77 3 92 -4 114 -55 26 -64 41 -30 27 60 l-7 37 -179 0 c-166 0 -179 -1
-176 -17z"/>
<path d="M3102 1183 c2 -10 12 -19 23 -21 43 -8 45 -17 45 -203 0 -189 -5
-209 -51 -209 -10 0 -19 -7 -19 -15 0 -22 304 -22 358 0 85 36 121 101 122
216 0 102 -33 171 -104 214 -49 30 -51 30 -214 33 -154 4 -164 3 -160 -15z
m310 -39 c62 -32 95 -124 85 -242 -8 -102 -61 -152 -163 -152 -86 0 -85 -3
-82 215 l3 189 25 7 c32 9 97 0 132 -17z"/>
<path d="M3662 1183 c2 -10 13 -19 25 -21 41 -6 44 -21 41 -213 l-3 -184 -32
-10 c-18 -5 -33 -15 -33 -22 0 -10 28 -13 116 -13 88 0 115 3 112 13 -3 6 -14
13 -26 15 -45 7 -52 35 -52 210 0 168 7 202 39 202 21 0 44 23 34 33 -3 4 -55
7 -115 7 -99 0 -109 -2 -106 -17z"/>
<path d="M361 492 c-25 -10 -69 -13 -158 -10 -110 3 -123 1 -123 -14 0 -9 -3
-23 -6 -32 -3 -9 -1 -16 4 -16 6 0 14 9 17 20 5 16 15 20 50 20 53 0 55 -4 55
-125 0 -125 -6 -152 -39 -164 -20 -7 -9 -9 54 -9 65 0 75 1 53 10 l-28 10 0
139 0 140 58 -3 57 -3 3 -130 c3 -123 2 -131 -19 -147 -21 -18 -20 -18 37 -18
52 1 57 2 41 14 -15 12 -17 26 -15 82 3 63 5 70 30 84 46 25 62 6 66 -75 2
-52 -1 -72 -14 -86 -17 -18 -15 -19 37 -19 47 1 52 2 37 14 -14 10 -18 28 -18
79 0 36 -4 77 -10 91 -13 36 -52 43 -95 18 l-34 -21 -3 83 -3 83 -34 -15z"/>
<path d="M3155 503 c-45 -10 -51 -15 -27 -24 21 -8 22 -12 22 -147 0 -133 -1
-140 -22 -155 -22 -15 -20 -16 42 -16 54 0 61 2 43 11 -22 11 -23 15 -23 175
0 89 -3 162 -7 162 -5 -1 -17 -3 -28 -6z"/>
<path d="M4128 503 c-31 -5 -37 -18 -13 -27 10 -4 15 -20 15 -53 l0 -48 -46 0
c-39 0 -50 -5 -75 -33 -24 -27 -29 -41 -29 -83 0 -43 5 -55 29 -80 33 -33 56
-36 89 -13 20 14 25 14 35 2 10 -12 18 -12 46 -3 34 12 34 13 13 24 -21 11
-22 17 -22 166 0 85 -3 154 -7 154 -5 -1 -20 -4 -35 -6z m-10 -155 c7 -7 12
-39 12 -73 0 -69 -20 -99 -61 -93 -45 6 -67 108 -33 156 17 24 62 30 82 10z"/>
<path d="M925 468 c33 -18 35 -28 35 -148 0 -120 -2 -130 -35 -148 -16 -9 -7
-11 50 -12 66 0 68 1 47 16 -19 13 -22 24 -22 80 l0 64 40 0 c27 0 43 -5 46
-15 11 -28 24 -15 24 25 0 40 -13 53 -24 25 -3 -10 -19 -15 -46 -15 l-40 0 0
61 0 60 53 -3 c43 -2 54 -7 62 -25 12 -28 25 -30 25 -4 0 49 -6 51 -124 51
-88 -1 -107 -3 -91 -12z"/>
<path d="M1908 468 c21 -11 22 -16 22 -144 0 -126 -1 -134 -22 -148 -21 -15
-14 -16 99 -16 l121 0 6 31 c12 60 1 67 -26 18 -17 -29 -20 -30 -75 -27 l-58
3 -3 68 -3 67 39 0 c30 0 44 -6 55 -22 15 -22 16 -21 16 32 0 53 -1 54 -16 33
-11 -17 -25 -23 -55 -23 l-39 0 3 58 3 57 47 3 c41 3 49 0 64 -22 22 -35 31
-32 26 9 l-4 35 -112 -1 c-87 0 -106 -3 -88 -11z"/>
<path d="M4264 469 c-8 -14 21 -43 35 -35 19 12 13 46 -8 46 -11 0 -23 -5 -27
-11z"/>
<path d="M664 371 c-63 -27 -87 -133 -41 -186 31 -36 82 -42 126 -15 35 22 37
39 3 21 -51 -27 -112 9 -112 65 0 23 3 24 70 24 67 0 70 1 70 24 0 51 -65 88
-116 67z m66 -31 c16 -30 4 -40 -46 -40 -48 0 -52 5 -28 38 19 28 60 29 74 2z"/>
<path d="M1188 373 c-29 -4 -39 -23 -13 -23 33 0 33 -150 -1 -175 -17 -13 -12
-14 46 -14 53 0 61 2 43 11 -40 19 -43 118 -5 160 11 13 18 15 28 7 16 -13 34
-4 34 17 0 25 -30 28 -60 6 -27 -20 -28 -20 -23 -2 5 21 4 21 -49 13z"/>
<path d="M1411 367 c-87 -44 -85 -181 3 -210 34 -11 67 -3 97 24 21 18 21 20
4 13 -54 -19 -82 -16 -104 11 -11 15 -21 38 -21 51 0 23 3 24 70 24 73 0 76 2
64 48 -6 22 -50 52 -76 52 -7 0 -24 -6 -37 -13z m68 -29 c12 -32 6 -38 -45
-38 -48 0 -55 11 -27 42 23 26 62 23 72 -4z"/>
<path d="M1628 364 c-53 -28 -73 -105 -43 -164 17 -32 70 -54 108 -45 27 7 68
45 49 45 -6 0 -14 -4 -17 -10 -8 -13 -51 -13 -75 0 -16 8 -40 58 -40 81 0 5
32 9 70 9 l70 0 0 29 c0 20 -9 36 -26 50 -31 25 -58 26 -96 5z m70 -16 c7 -7
12 -20 12 -30 0 -15 -9 -18 -50 -18 -49 0 -50 1 -39 23 20 38 53 49 77 25z"/>
<path d="M2198 373 c-29 -4 -39 -23 -13 -23 24 0 22 -158 -2 -176 -16 -12 -11
-13 36 -14 52 0 53 1 38 18 -12 13 -17 37 -17 75 0 65 26 100 70 95 24 -3 25
-6 28 -82 2 -66 0 -80 -15 -92 -16 -12 -11 -13 42 -14 57 0 58 1 37 16 -20 13
-22 24 -22 93 0 63 -4 81 -18 94 -25 22 -48 21 -88 -4 l-34 -21 0 21 c0 12 -3
20 -7 20 -5 -1 -20 -4 -35 -6z"/>
<path d="M2498 365 c-76 -42 -76 -165 -1 -200 38 -18 76 -14 106 12 26 24 20
37 -9 19 -14 -10 -37 -16 -52 -14 -55 6 -80 119 -36 163 23 23 53 18 66 -10
13 -28 36 -33 45 -9 15 39 -70 67 -119 39z"/>
<path d="M2973 370 c-53 -22 -78 -111 -48 -170 29 -56 127 -61 156 -9 12 23
-3 25 -21 4 -7 -8 -25 -15 -41 -15 -52 0 -83 78 -55 143 19 46 60 52 78 12 13
-28 36 -33 45 -9 13 35 -65 65 -114 44z"/>
<path d="M3294 361 c-50 -30 -67 -97 -39 -151 34 -66 121 -76 169 -19 45 53
31 146 -25 175 -38 19 -68 18 -105 -5z m91 -21 c26 -28 32 -113 11 -145 -47
-72 -131 21 -106 116 6 21 16 40 23 42 26 11 55 6 72 -13z"/>
<path d="M3508 373 c-31 -5 -37 -18 -13 -27 12 -4 15 -29 15 -139 0 -128 -1
-135 -22 -150 -22 -15 -20 -16 40 -16 60 -1 83 11 42 22 -16 4 -20 14 -20 52
0 46 0 47 29 40 91 -20 162 87 116 175 -27 53 -74 64 -119 29 l-26 -20 0 20
c0 12 -3 20 -7 20 -5 -1 -20 -4 -35 -6z m148 -55 c33 -63 -2 -148 -60 -148
-35 0 -46 20 -46 84 0 69 17 96 61 96 22 0 32 -7 45 -32z"/>
<path d="M3803 360 c-69 -41 -68 -161 1 -194 42 -20 50 -20 92 0 41 20 46 37
6 22 -54 -21 -88 1 -107 69 -6 21 -3 22 67 25 71 3 73 4 70 28 -4 31 -46 70
-75 70 -12 0 -36 -9 -54 -20z m75 -12 c7 -7 12 -20 12 -30 0 -15 -8 -18 -45
-18 -49 0 -59 15 -29 44 18 19 45 21 62 4z"/>
<path d="M4268 373 c-31 -5 -37 -18 -13 -27 11 -4 15 -23 15 -80 0 -66 -3 -77
-22 -90 -21 -15 -19 -16 42 -15 54 0 61 2 43 11 -22 10 -23 17 -23 110 0 54
-3 97 -7 97 -5 -1 -20 -4 -35 -6z"/>
<path d="M4430 373 c-44 -16 -67 -63 -31 -63 13 0 21 8 23 23 4 29 47 36 65
11 24 -33 16 -51 -31 -64 -83 -23 -112 -87 -54 -119 24 -14 30 -14 61 1 31 15
36 15 50 0 14 -13 20 -14 44 -2 26 13 27 14 7 17 -20 4 -22 11 -26 85 -3 69
-6 82 -27 99 -23 19 -51 23 -81 12z m70 -138 c0 -44 -36 -73 -69 -55 -33 17
-26 55 14 78 38 22 55 15 55 -23z"/>
<path d="M2666 355 c21 -14 94 -169 94 -200 0 -30 -29 -74 -52 -77 -27 -4 -35
-26 -13 -34 27 -11 52 25 110 157 30 68 64 134 76 147 l21 22 -42 0 c-37 0
-41 -2 -30 -15 11 -13 9 -26 -11 -75 -13 -33 -27 -60 -30 -60 -4 0 -19 28 -33
62 -26 59 -26 63 -10 75 15 11 9 13 -41 13 -55 0 -58 -1 -39 -15z"/>
</g>
</svg>
